<svg width="86" height="94" viewBox="0 0 86 94" fill="none" xmlns="http://www.w3.org/2000/svg">
<g filter="url(#filter0_b_17_295)">
<path d="M43.3283 19.5508L43.1415 19.8042L43.0194 19.8684L38.5754 20.6254M43.3283 19.5508L53.1424 1.26135L60.227 25.9143L84.9166 68.2037L84.7373 68.2728L84.7297 68.2593L84.7232 68.2782L63.4124 76.4833L40.8108 92.8382L38.4834 88.9915L38.4045 88.8611L30.1997 75.3006L30.2039 75.1847L30.0578 75.3293L29.9721 75.2379L30.2105 75.0018L30.6334 63.3059V63.5434H30.6248L30.8775 56.5554L16.4154 57.8203L8.22765 55.7167L1.76779 46.9603L1.67409 46.8333L1 45.9195L18.66 37.5772L22.6894 31.4765L25.2229 27.362L29.4596 19.7631L30.2117 5.59345L38.5754 20.6254M43.3283 19.5508L53.1088 1.59276M43.3283 19.5508L43.0194 19.9954L40.3788 23.676L50.23 25.8633L53.1088 1.59276M38.5754 20.6254L30.2188 5.60613M38.5754 20.6254L35.4316 21.3676L30.2188 5.60613M30.2188 5.60613L29.632 18.8478L34.1041 21.681L35.3106 21.3962L30.2188 5.60613ZM53.1088 1.59276L50.3477 25.9204L53.2206 29.4382C53.2206 29.4382 57.9232 30.3662 60.9364 30.9607M53.1088 1.59276L60.113 25.9658L84.7343 68.1383L84.6557 68.1686L82.4434 65.4016L72.5795 50.417L72.5751 50.4105L71.0863 49.0717L71.0855 49.0709L71.0846 49.0702L60.4763 40.1846L60.4662 40.1761L60.4206 40.138L61.4096 31.3081L60.9364 30.9607M60.9364 30.9607L61.2785 31.3679L60.3395 40.2012V40.2338L59.5929 43.7752L53.2933 29.5819L60.9364 30.9607ZM61.5849 52.8588L61.5788 52.8214M61.5849 52.8588L61.5658 52.7414L59.6771 43.9754L60.447 40.3239L70.9939 49.158L77.2954 66.0001L77.3912 65.9851L71.0117 49.0808L72.4821 50.4956L82.3198 65.2111L77.2045 66.0144L64.029 74.2288L62.855 74.9274L62.8822 64.1104L61.5849 52.8588ZM50.8053 47.6481L51.0358 47.3433L38.632 25.9649L38.8792 25.6473L53.1433 29.5501L59.5549 43.9958L61.4617 52.8454L48.3803 65.9123L49.1703 55.6697L50.8053 47.6481ZM50.8053 47.6481L39.8649 56.3839M62.7653 75.3601L62.7606 75.357L48.3335 66.1677L38.544 88.8511L40.8566 92.7088L63.3542 76.3701L84.5208 68.2205L77.2328 66.1435L64.0908 74.4193L62.855 75.1179V75.3719L62.7732 75.5107L62.7653 75.5165L40.424 91.9468V91.8833L62.7653 75.3601ZM62.7653 75.3601V64.1104L61.4828 53.0014L48.4056 66.0642L62.7653 75.3601ZM25.6649 36.2806L29.6008 36.6663L33.9745 33.5855M25.6649 36.2806L27.2043 32.572L33.9745 33.5855M25.6649 36.2806L27.1046 32.4852L26.666 31.6402L21.7146 37.5456L20.6502 38.3056M25.6649 36.2806L29.6251 36.7975L48.2301 46.9867L29.5333 49.5149L30.88 51.4262M30.88 51.4262V53.107L21.2064 51.202M30.88 51.4262L21.2064 51.202M50.6895 47.6481L50.8898 47.3393L38.5794 26.0215L26.7636 31.5583L27.2184 32.4347L33.9745 33.5855M50.6895 47.6481L48.4529 46.9647L29.7186 36.7047L33.9745 33.5855M50.6895 47.6481L48.4243 47.0885L29.6102 49.5888M50.6895 47.6481L30.7521 63.4425M50.6895 47.6481L30.9245 63.3059L39.8649 56.3839M50.6895 47.6481L49.0478 55.6513L48.2472 66.0303L33.5279 71.805L39.8649 56.3839M30.7521 63.4425L31.0036 56.4169M30.7521 63.4425L30.3387 74.8747L33.3617 71.881L39.8649 56.3839M30.7521 63.4425L39.8649 56.3839M31.0036 56.4169L31.0014 56.5348M31.0036 56.4169V51.3851L29.6102 49.5888M29.6102 49.5888L20.6502 38.3056M29.6102 49.5888L30.9079 51.367M30.9079 51.367L20.5266 38.3484M30.9079 51.367L20.5884 51.1129M20.6502 38.3056L8.6465 46.8773L20.6383 51.0901L21.2064 51.202M29.6243 18.9921L33.9745 21.7481L26.088 26.4729L29.5816 19.797L29.6243 18.9921ZM26.088 26.5999L34.1167 21.8083L38.6361 20.7413L42.8385 20.0141L40.2237 23.6786L40.2228 23.6798L38.5646 25.8888L26.6401 31.4765L21.6312 37.4504L8.49156 46.8333H1.82918L1.19149 45.9689L18.7536 37.6728L23.0534 30.9818L25.4701 27.5525L26.088 26.5999ZM53.0151 29.3841L50.2494 25.9975L40.2977 23.7879L38.9499 25.5835L53.0151 29.3841ZM1.92288 46.9603L5.43145 51.7162L8.39791 46.9603H1.92288ZM8.53679 46.973L20.5086 51.1788L18.3111 53.4371L6.47336 53.1203L6.47316 53.1282L5.511 51.824L8.53679 46.973ZM6.56282 53.2498L8.29985 55.6043L15.8952 57.5558L17.9155 53.8437L18.1906 53.5609L6.56282 53.2498ZM16.0195 57.5877L16.4255 57.692L30.88 56.4277V53.2363L20.6429 51.2203L18.015 53.921L16.0195 57.5877ZM33.4474 71.9725L30.3321 75.0577L30.3246 75.2665L38.4651 88.7207L48.189 66.1891L33.4474 71.9725ZM77.2328 66.0756L84.4099 68.0571L82.2663 65.3183L77.2328 66.0756Z" stroke="url(#paint0_angular_17_295)" stroke-width="0.516"/>
</g>
<defs>
<filter id="filter0_b_17_295" x="-1.11386" y="-1.1398" width="88.1677" height="96.0712" filterUnits="userSpaceOnUse" color-interpolation-filters="sRGB">
<feFlood flood-opacity="0" result="BackgroundImageFix"/>
<feGaussianBlur in="BackgroundImageFix" stdDeviation="0.86"/>
<feComposite in2="SourceAlpha" operator="in" result="effect1_backgroundBlur_17_295"/>
<feBlend mode="normal" in="SourceGraphic" in2="effect1_backgroundBlur_17_295" result="shape"/>
</filter>
<radialGradient id="paint0_angular_17_295" cx="0" cy="0" r="1" gradientUnits="userSpaceOnUse" gradientTransform="translate(42.9583 47.0498) rotate(90) scale(45.7884 41.9583)">
<stop offset="0.205641" stop-color="#0066FF"/>
<stop offset="0.75" stop-color="#AB0808"/>
</radialGradient>
</defs>
</svg>
