<svg width="106" height="44" viewBox="0 0 106 44" fill="none" xmlns="http://www.w3.org/2000/svg">
<rect x="1.5" y="10.5" width="98" height="32" stroke="white" stroke-width="3"/>
<path d="M14.049 35V20.98H11.469V18.8H19.549V20.98H17.009V35H14.049ZM26.3427 35.18C25.4761 35.18 24.7694 35.02 24.2227 34.7C23.6761 34.3667 23.2694 33.8867 23.0027 33.26C22.7494 32.62 22.6227 31.8533 22.6227 30.96V27.48C22.6227 26.56 22.7494 25.7867 23.0027 25.16C23.2694 24.5333 23.6761 24.06 24.2227 23.74C24.7827 23.42 25.4894 23.26 26.3427 23.26C27.2627 23.26 27.9761 23.4333 28.4827 23.78C29.0027 24.1267 29.3694 24.6333 29.5827 25.3C29.8094 25.9533 29.9227 26.7533 29.9227 27.7V29.34H25.3227V31.62C25.3227 31.9933 25.3561 32.3 25.4227 32.54C25.5027 32.78 25.6227 32.9533 25.7827 33.06C25.9427 33.1667 26.1361 33.22 26.3627 33.22C26.6027 33.22 26.7961 33.1667 26.9427 33.06C27.0894 32.94 27.1961 32.7733 27.2627 32.56C27.3294 32.3333 27.3627 32.0533 27.3627 31.72V30.76H29.9027V31.54C29.9027 32.7133 29.6094 33.6133 29.0227 34.24C28.4361 34.8667 27.5427 35.18 26.3427 35.18ZM25.3227 28H27.3627V26.9C27.3627 26.5 27.3294 26.18 27.2627 25.94C27.1961 25.6867 27.0894 25.5067 26.9427 25.4C26.7961 25.28 26.5894 25.22 26.3227 25.22C26.0827 25.22 25.8894 25.28 25.7427 25.4C25.5961 25.52 25.4894 25.72 25.4227 26C25.3561 26.28 25.3227 26.68 25.3227 27.2V28ZM37.2485 35.18C36.3552 35.18 35.6352 35.0133 35.0885 34.68C34.5552 34.3333 34.1618 33.8467 33.9085 33.22C33.6685 32.58 33.5485 31.8267 33.5485 30.96V27.48C33.5485 26.5867 33.6685 25.8267 33.9085 25.2C34.1618 24.5733 34.5618 24.0933 35.1085 23.76C35.6552 23.4267 36.3685 23.26 37.2485 23.26C38.0752 23.26 38.7485 23.3933 39.2685 23.66C39.8018 23.9133 40.1885 24.3067 40.4285 24.84C40.6685 25.36 40.7885 26.02 40.7885 26.82V27.78H38.2285V26.76C38.2285 26.36 38.1952 26.0467 38.1285 25.82C38.0752 25.58 37.9752 25.4133 37.8285 25.32C37.6818 25.2133 37.4885 25.16 37.2485 25.16C37.0085 25.16 36.8152 25.2267 36.6685 25.36C36.5218 25.48 36.4152 25.68 36.3485 25.96C36.2952 26.24 36.2685 26.6267 36.2685 27.12V31.36C36.2685 32.1067 36.3485 32.6133 36.5085 32.88C36.6685 33.1333 36.9218 33.26 37.2685 33.26C37.5352 33.26 37.7352 33.2 37.8685 33.08C38.0152 32.96 38.1085 32.7867 38.1485 32.56C38.2018 32.32 38.2285 32.0333 38.2285 31.7V30.46H40.7885V31.56C40.7885 32.3333 40.6618 32.9933 40.4085 33.54C40.1685 34.0867 39.7818 34.5 39.2485 34.78C38.7285 35.0467 38.0618 35.18 37.2485 35.18ZM44.6171 35V18.8H47.3371V24.54C47.7371 24.14 48.1704 23.8267 48.6371 23.6C49.1171 23.3733 49.6371 23.26 50.1971 23.26C50.6638 23.26 51.0371 23.38 51.3171 23.62C51.5971 23.8467 51.8038 24.1533 51.9371 24.54C52.0704 24.9267 52.1371 25.3467 52.1371 25.8V35H49.4171V26.34C49.4171 25.9933 49.3638 25.7267 49.2571 25.54C49.1504 25.3533 48.9438 25.26 48.6371 25.26C48.4504 25.26 48.2371 25.3133 47.9971 25.42C47.7704 25.5267 47.5504 25.6667 47.3371 25.84V35H44.6171ZM56.3479 35V18.8H59.2879V25.58H62.5879V18.8H65.5479V35H62.5879V27.68H59.2879V35H56.3479ZM71.7066 35.18C71.2533 35.18 70.88 35.0667 70.5866 34.84C70.2933 34.6 70.08 34.2867 69.9466 33.9C69.8133 33.5 69.7466 33.08 69.7466 32.64V23.44H72.4666V32.14C72.4666 32.4867 72.52 32.76 72.6266 32.96C72.7466 33.1467 72.96 33.24 73.2666 33.24C73.4666 33.24 73.6666 33.1867 73.8666 33.08C74.08 32.9733 74.2866 32.8467 74.4866 32.7V23.44H77.2066V35H74.4866V33.9C74.1 34.2733 73.6733 34.58 73.2066 34.82C72.74 35.06 72.24 35.18 71.7066 35.18ZM86.2798 35.18C85.8531 35.18 85.4531 35.08 85.0798 34.88C84.7064 34.68 84.3598 34.4333 84.0398 34.14V35H81.3198V18.8H84.0398V24.32C84.3731 24 84.7331 23.7467 85.1198 23.56C85.5198 23.36 85.9464 23.26 86.3998 23.26C86.9198 23.26 87.3464 23.38 87.6798 23.62C88.0131 23.86 88.2731 24.18 88.4598 24.58C88.6464 24.9667 88.7731 25.3867 88.8398 25.84C88.9198 26.28 88.9598 26.7067 88.9598 27.12V31.04C88.9598 31.8 88.8664 32.4933 88.6798 33.12C88.5064 33.7467 88.2198 34.2467 87.8198 34.62C87.4331 34.9933 86.9198 35.18 86.2798 35.18ZM85.2398 33.28C85.5331 33.28 85.7464 33.1867 85.8798 33C86.0264 32.8 86.1198 32.54 86.1598 32.22C86.2131 31.8867 86.2398 31.5267 86.2398 31.14V27C86.2398 26.64 86.2131 26.32 86.1598 26.04C86.1064 25.7467 86.0064 25.5133 85.8598 25.34C85.7264 25.1667 85.5131 25.08 85.2198 25.08C85.0064 25.08 84.7998 25.1333 84.5998 25.24C84.3998 25.3333 84.2131 25.44 84.0398 25.56V32.86C84.2131 32.98 84.3998 33.08 84.5998 33.16C84.8131 33.24 85.0264 33.28 85.2398 33.28Z" fill="white"/>
<path d="M100.616 39V34.4384H104V2H11.5116V5.0411H7" stroke="white" stroke-width="3"/>
</svg>
